<?xml version="1.0" encoding="UTF-8"?>
<!DOCTYPE svg PUBLIC "-//W3C//DTD SVG 1.1//EN" "http://www.w3.org/Graphics/SVG/1.1/DTD/svg11.dtd">
<svg xmlns="http://www.w3.org/2000/svg" version="1.1" width="3000px" height="2406px" style="shape-rendering:geometricPrecision; text-rendering:geometricPrecision; image-rendering:optimizeQuality; fill-rule:evenodd; clip-rule:evenodd" xmlns:xlink="http://www.w3.org/1999/xlink">
<g><path style="opacity:0.995" fill="#61dafb" d="M 1872.5,216.5 C 1956.15,210.891 2017.32,244.891 2056,318.5C 2079.19,368.92 2091.85,421.92 2094,477.5C 2098.09,574.505 2088.59,670.172 2065.5,764.5C 2125.36,783.428 2183.69,806.261 2240.5,833C 2286.84,855.153 2330.18,881.819 2370.5,913C 2402.02,937.598 2428.85,966.432 2451,999.5C 2493.69,1070.34 2491.35,1139.67 2444,1207.5C 2414.96,1246.21 2380.46,1279.04 2340.5,1306C 2271.59,1351.29 2197.93,1387.29 2119.5,1414C 2102.86,1419.6 2086.19,1425.1 2069.5,1430.5C 2069.17,1431.17 2068.83,1431.83 2068.5,1432.5C 2085.2,1503.9 2095.03,1576.24 2098,1649.5C 2100.82,1710.59 2094.16,1770.59 2078,1829.5C 2066.67,1869.69 2046.5,1904.52 2017.5,1934C 1978.59,1967.74 1933.25,1982.41 1881.5,1978C 1835.49,1973.89 1791.49,1962.22 1749.5,1943C 1687.61,1913.7 1629.95,1878.04 1576.5,1836C 1548.06,1812.73 1520.06,1788.9 1492.5,1764.5C 1432.09,1821.44 1366.42,1871.27 1295.5,1914C 1255.1,1937.58 1212.43,1955.91 1167.5,1969C 1030.57,2004.13 942.732,1953.96 904,1818.5C 889.107,1756.66 883.773,1694 888,1630.5C 892.135,1563.06 901.635,1496.39 916.5,1430.5C 830.29,1405.72 748.623,1370.56 671.5,1325C 632.882,1301.74 597.715,1273.9 566,1241.5C 479.902,1148.02 478.902,1053.68 563,958.5C 605.05,915.574 652.55,880.074 705.5,852C 772.243,816.363 841.91,787.863 914.5,766.5C 908.092,734.961 902.259,703.294 897,671.5C 883.757,591.746 881.757,511.746 891,431.5C 896.988,380.858 913.655,334.191 941,291.5C 978.285,240.61 1028.79,215.944 1092.5,217.5C 1133.67,219.633 1173.33,228.467 1211.5,244C 1264.38,265.931 1314.05,293.264 1360.5,326C 1405.85,358.531 1449.18,393.698 1490.5,431.5C 1541.53,384.284 1595.86,341.451 1653.5,303C 1693.89,277.137 1736.56,255.47 1781.5,238C 1811.12,227.177 1841.45,220.01 1872.5,216.5 Z M 1876.5,307.5 C 1891.66,306.783 1906.66,307.95 1921.5,311C 1939.85,316.252 1954.35,326.752 1965,342.5C 1983.47,372.58 1994.81,405.247 1999,440.5C 2006.75,505.898 2006.09,571.231 1997,636.5C 1992.02,671.392 1985.85,706.059 1978.5,740.5C 1894.03,720.867 1808.7,706.2 1722.5,696.5C 1671.17,626.308 1615.5,559.475 1555.5,496C 1608.82,445.363 1666.82,401.029 1729.5,363C 1762.87,342.984 1798.2,327.318 1835.5,316C 1849.13,312.308 1862.8,309.474 1876.5,307.5 Z M 1087.5,308.5 C 1126.3,310.949 1163.3,320.449 1198.5,337C 1242.43,357.655 1283.76,382.322 1322.5,411C 1358,437.823 1392.33,466.157 1425.5,496C 1365.45,559.189 1310.12,626.022 1259.5,696.5C 1173.3,705.839 1088.13,720.839 1004,741.5C 982.99,658.411 973.99,574.078 977,488.5C 978.432,448.571 986.098,409.905 1000,372.5C 1007.68,353.505 1019.18,337.339 1034.5,324C 1050.64,313.383 1068.31,308.217 1087.5,308.5 Z M 1489.5,560.5 C 1529.2,600.777 1566.2,643.277 1600.5,688C 1527.15,684.7 1453.82,684.7 1380.5,688C 1414.8,643.862 1451.13,601.362 1489.5,560.5 Z M 1463.5,776.5 C 1533.31,776.019 1602.98,778.852 1672.5,785C 1741.67,883.674 1802,988.008 1853.5,1098C 1802.34,1208.31 1742.34,1312.97 1673.5,1412C 1552.55,1422.99 1431.55,1423.33 1310.5,1413C 1241.11,1314.12 1180.44,1209.62 1128.5,1099.5C 1180.35,989.23 1240.69,884.396 1309.5,785C 1360.9,780.497 1412.23,777.664 1463.5,776.5 Z M 1183.5,798.5 C 1185.53,798.338 1187.53,798.505 1189.5,799C 1150.43,860.293 1114.26,923.46 1081,988.5C 1060.47,937.76 1042.47,886.094 1027,833.5C 1026.22,832.056 1026.39,830.723 1027.5,829.5C 1079.21,817.091 1131.21,806.757 1183.5,798.5 Z M 1792.5,798.5 C 1846.34,805.973 1899.67,816.14 1952.5,829C 1953.43,829.388 1954.09,830.055 1954.5,831C 1939.25,883.761 1921.41,935.595 1901,986.5C 1867.59,921.981 1831.42,859.314 1792.5,798.5 Z M 2043.5,853.5 C 2111.93,874.474 2177.59,901.974 2240.5,936C 2274.45,955.136 2306.11,977.47 2335.5,1003C 2355.16,1020.65 2370.99,1041.15 2383,1064.5C 2394.57,1091.82 2392.57,1118.16 2377,1143.5C 2364.09,1163.1 2348.92,1180.93 2331.5,1197C 2285.26,1235.83 2234.26,1267.49 2178.5,1292C 2134.91,1311.2 2090.41,1328.03 2045,1342.5C 2019.67,1259 1989.5,1177.33 1954.5,1097.5C 1989.21,1018.06 2018.88,936.729 2043.5,853.5 Z M 934.5,854.5 C 935.822,854.33 936.989,854.663 938,855.5C 962.653,938.802 992.82,1019.97 1028.5,1099C 992.807,1177.91 963.14,1259.07 939.5,1342.5C 850.835,1317.25 768.168,1279.41 691.5,1229C 664.542,1210.38 640.375,1188.55 619,1163.5C 606.436,1148.57 597.77,1131.57 593,1112.5C 589.689,1091.39 593.689,1071.72 605,1053.5C 620.273,1029.89 638.773,1009.06 660.5,991C 703.537,957.127 750.204,928.794 800.5,906C 844.365,886.548 889.032,869.382 934.5,854.5 Z M 1900.5,1208.5 C 1922.54,1259.78 1940.7,1312.44 1955,1366.5C 1901.85,1379.6 1848.18,1390.26 1794,1398.5C 1792.74,1398.15 1792.41,1397.48 1793,1396.5C 1832.14,1335.9 1867.98,1273.23 1900.5,1208.5 Z M 1080.5,1209.5 C 1114.24,1274.16 1150.9,1336.99 1190.5,1398C 1135.72,1390.42 1081.39,1380.26 1027.5,1367.5C 1042.78,1314.01 1060.44,1261.34 1080.5,1209.5 Z M 1978.5,1454.5 C 2001.38,1544.06 2009.88,1635.06 2004,1727.5C 2001.52,1766.74 1991.86,1804.08 1975,1839.5C 1952.87,1879.58 1919.04,1895.08 1873.5,1886C 1841.47,1881.1 1810.81,1871.77 1781.5,1858C 1719.39,1827.64 1662.06,1790.3 1609.5,1746C 1591.74,1731.58 1574.57,1716.41 1558,1700.5C 1557.33,1699.83 1557.33,1699.17 1558,1698.5C 1617.69,1635.5 1672.86,1569 1723.5,1499C 1809.69,1490.19 1894.69,1475.36 1978.5,1454.5 Z M 1004.5,1455.5 C 1088.52,1475.73 1173.52,1490.56 1259.5,1500C 1310.86,1569.71 1366.36,1636.21 1426,1699.5C 1426.67,1700.17 1426.67,1700.83 1426,1701.5C 1372.08,1752.19 1313.58,1796.69 1250.5,1835C 1218.57,1853.87 1184.9,1868.87 1149.5,1880C 1124.35,1888.01 1098.69,1890.68 1072.5,1888C 1050.65,1885.16 1033.15,1874.99 1020,1857.5C 1004.15,1834.11 993.481,1808.44 988,1780.5C 977.266,1724.24 974.599,1667.57 980,1610.5C 984.586,1558.23 992.753,1506.56 1004.5,1455.5 Z M 1381.5,1509.5 C 1383.64,1508.84 1385.97,1508.5 1388.5,1508.5C 1423.48,1510.07 1458.48,1511.07 1493.5,1511.5C 1529.52,1510.86 1565.52,1510.03 1601.5,1509C 1567.25,1553.27 1530.75,1595.77 1492,1636.5C 1453.44,1595.45 1416.6,1553.12 1381.5,1509.5 Z"/></g>
<g><path style="opacity:0.997" fill="#61dafb" d="M 1476.5,913.5 C 1555.99,911.311 1615.49,944.311 1655,1012.5C 1683.21,1071.99 1682.21,1130.99 1652,1189.5C 1610.12,1257.03 1549.29,1287.86 1469.5,1282C 1396.97,1271.01 1346.47,1231.85 1318,1164.5C 1294.51,1095.08 1305.85,1032.08 1352,975.5C 1385.58,938.96 1427.08,918.294 1476.5,913.5 Z"/></g>
<g><path style="opacity:0.975" fill="#60dafb" d="M 2100.5,2138.5 C 2118.67,2137.84 2126.51,2146.51 2124,2164.5C 2121.76,2171.07 2117.26,2175.24 2110.5,2177C 2095.19,2179.87 2086.53,2173.7 2084.5,2158.5C 2085.12,2147.86 2090.46,2141.19 2100.5,2138.5 Z"/></g>
<g><path style="opacity:0.981" fill="#60dafb" d="M 495.5,2142.5 C 529.502,2142.33 563.502,2142.5 597.5,2143C 623.51,2144.09 644.677,2154.59 661,2174.5C 674.473,2198.43 676.806,2223.43 668,2249.5C 658.826,2268.84 644.326,2282.51 624.5,2290.5C 642.746,2323.99 661.246,2357.33 680,2390.5C 682.364,2394.22 683.864,2398.22 684.5,2402.5C 671.816,2402.83 659.149,2402.5 646.5,2401.5C 627.96,2366.92 609.294,2332.42 590.5,2298C 570.503,2297.5 550.503,2297.33 530.5,2297.5C 530.5,2332.5 530.5,2367.5 530.5,2402.5C 518.833,2402.5 507.167,2402.5 495.5,2402.5C 495.5,2315.83 495.5,2229.17 495.5,2142.5 Z M 530.5,2171.5 C 551.169,2171.33 571.836,2171.5 592.5,2172C 626.117,2176.97 640.95,2196.47 637,2230.5C 630.689,2252.93 615.855,2265.43 592.5,2268C 571.836,2268.5 551.169,2268.67 530.5,2268.5C 530.5,2236.17 530.5,2203.83 530.5,2171.5 Z"/></g>
<g><path style="opacity:0.98" fill="#61dafb" d="M 1512.5,2142.5 C 1524.52,2142.17 1536.52,2142.5 1548.5,2143.5C 1591.33,2209.17 1634.17,2274.83 1677,2340.5C 1677.5,2274.5 1677.67,2208.5 1677.5,2142.5C 1689.17,2142.5 1700.83,2142.5 1712.5,2142.5C 1712.5,2229.17 1712.5,2315.83 1712.5,2402.5C 1700.48,2402.83 1688.48,2402.5 1676.5,2401.5C 1633.67,2335.83 1590.83,2270.17 1548,2204.5C 1547.5,2270.5 1547.33,2336.5 1547.5,2402.5C 1535.83,2402.5 1524.17,2402.5 1512.5,2402.5C 1512.5,2315.83 1512.5,2229.17 1512.5,2142.5 Z"/></g>
<g><path style="opacity:0.988" fill="#60dafa" d="M 1367.5,2405.5 C 1359.17,2405.5 1350.83,2405.5 1342.5,2405.5C 1324.69,2401.18 1314.19,2389.85 1311,2371.5C 1309.53,2326.2 1309.03,2280.87 1309.5,2235.5C 1297.83,2235.5 1286.17,2235.5 1274.5,2235.5C 1274.5,2226.5 1274.5,2217.5 1274.5,2208.5C 1286.17,2208.5 1297.83,2208.5 1309.5,2208.5C 1309.5,2193.17 1309.5,2177.83 1309.5,2162.5C 1320.83,2162.5 1332.17,2162.5 1343.5,2162.5C 1343.5,2177.83 1343.5,2193.17 1343.5,2208.5C 1355.5,2208.5 1367.5,2208.5 1379.5,2208.5C 1379.5,2217.5 1379.5,2226.5 1379.5,2235.5C 1367.5,2235.5 1355.5,2235.5 1343.5,2235.5C 1343.02,2278.88 1343.52,2322.21 1345,2365.5C 1346.82,2371.17 1350.66,2374.67 1356.5,2376C 1364.6,2376.83 1372.6,2376.33 1380.5,2374.5C 1380.5,2383.83 1380.5,2393.17 1380.5,2402.5C 1376.02,2403.37 1371.68,2404.37 1367.5,2405.5 Z"/></g>
<g><path style="opacity:0.987" fill="#61dafb" d="M 2035.5,2405.5 C 2027.17,2405.5 2018.83,2405.5 2010.5,2405.5C 1993.1,2401.27 1982.6,2390.27 1979,2372.5C 1977.53,2326.87 1977.03,2281.2 1977.5,2235.5C 1965.83,2235.5 1954.17,2235.5 1942.5,2235.5C 1942.5,2226.5 1942.5,2217.5 1942.5,2208.5C 1954.17,2208.5 1965.83,2208.5 1977.5,2208.5C 1977.5,2193.17 1977.5,2177.83 1977.5,2162.5C 1988.83,2162.5 2000.17,2162.5 2011.5,2162.5C 2011.5,2177.83 2011.5,2193.17 2011.5,2208.5C 2023.5,2208.5 2035.5,2208.5 2047.5,2208.5C 2047.5,2217.5 2047.5,2226.5 2047.5,2235.5C 2035.5,2235.5 2023.5,2235.5 2011.5,2235.5C 2011.33,2277.83 2011.5,2320.17 2012,2362.5C 2014.57,2372.8 2021.23,2377.47 2032,2376.5C 2036.94,2376.52 2041.78,2375.85 2046.5,2374.5C 2047.83,2383.83 2047.83,2393.17 2046.5,2402.5C 2042.74,2403.61 2039.07,2404.61 2035.5,2405.5 Z"/></g>
<g><path style="opacity:0.983" fill="#60dafb" d="M 811.5,2405.5 C 801.167,2405.5 790.833,2405.5 780.5,2405.5C 741.777,2397.61 717.944,2374.28 709,2335.5C 703.443,2305.27 707.11,2276.27 720,2248.5C 745.044,2209.48 779.877,2196.98 824.5,2211C 842.814,2219.31 855.647,2232.81 863,2251.5C 869.767,2272.28 872.6,2293.62 871.5,2315.5C 827.833,2315.5 784.167,2315.5 740.5,2315.5C 740.891,2335.44 748.224,2352.27 762.5,2366C 785.023,2381.58 808.023,2382.25 831.5,2368C 837.323,2363.18 842.823,2358.01 848,2352.5C 854.939,2357.1 861.605,2362.1 868,2367.5C 863.9,2376.44 857.733,2383.94 849.5,2390C 837.816,2397.83 825.15,2403 811.5,2405.5 Z M 784.5,2233.5 C 809.725,2231.58 826.225,2242.58 834,2266.5C 835.902,2273.38 837.068,2280.38 837.5,2287.5C 805.833,2287.5 774.167,2287.5 742.5,2287.5C 743.859,2266.94 752.859,2250.77 769.5,2239C 774.434,2236.64 779.434,2234.8 784.5,2233.5 Z"/></g>
<g><path style="opacity:0.986" fill="#60dafb" d="M 981.5,2405.5 C 972.5,2405.5 963.5,2405.5 954.5,2405.5C 914.773,2396.38 898.273,2371.71 905,2331.5C 912.89,2308.62 928.723,2294.45 952.5,2289C 961.373,2286.83 970.373,2285.49 979.5,2285C 993.829,2284.5 1008.16,2284.33 1022.5,2284.5C 1025.58,2246.41 1008.24,2229.57 970.5,2234C 956.853,2236.32 947.353,2243.82 942,2256.5C 941.503,2258.81 941.337,2261.14 941.5,2263.5C 929.833,2263.5 918.167,2263.5 906.5,2263.5C 908.266,2244.24 917.266,2229.41 933.5,2219C 960.601,2204.14 988.934,2201.47 1018.5,2211C 1039.12,2219.42 1051.29,2234.59 1055,2256.5C 1056.28,2295.48 1056.94,2334.48 1057,2373.5C 1058.37,2383.29 1060.2,2392.96 1062.5,2402.5C 1050.83,2402.67 1039.16,2402.5 1027.5,2402C 1025.14,2396.05 1023.47,2389.88 1022.5,2383.5C 1010.9,2394.8 997.233,2402.13 981.5,2405.5 Z M 997.5,2308.5 C 1005.83,2308.5 1014.17,2308.5 1022.5,2308.5C 1031.61,2339.43 1021.61,2360.93 992.5,2373C 980.154,2377.55 967.821,2377.55 955.5,2373C 939.258,2363.95 933.758,2350.45 939,2332.5C 942.893,2324.27 949.059,2318.44 957.5,2315C 970.642,2310.75 983.976,2308.59 997.5,2308.5 Z"/></g>
<g><path style="opacity:0.981" fill="#60dafb" d="M 1197.5,2405.5 C 1188.17,2405.5 1178.83,2405.5 1169.5,2405.5C 1136.45,2399.63 1114.62,2380.63 1104,2348.5C 1098.82,2328.15 1097.16,2307.48 1099,2286.5C 1101.34,2259.98 1112.51,2238.15 1132.5,2221C 1155.55,2205.99 1180.55,2201.66 1207.5,2208C 1241.36,2218.36 1259.36,2241.19 1261.5,2276.5C 1250.83,2276.5 1240.17,2276.5 1229.5,2276.5C 1224.76,2246.26 1207.09,2232.09 1176.5,2234C 1156.21,2237.28 1143.05,2248.78 1137,2268.5C 1133.25,2280.72 1131.75,2293.22 1132.5,2306C 1130.98,2325.74 1135.48,2343.91 1146,2360.5C 1160.36,2376.13 1177.86,2381.3 1198.5,2376C 1216.17,2370.5 1226.5,2358.67 1229.5,2340.5C 1240.17,2340.5 1250.83,2340.5 1261.5,2340.5C 1260.16,2360.01 1251.83,2375.84 1236.5,2388C 1224.87,2397.04 1211.87,2402.87 1197.5,2405.5 Z"/></g>
<g><path style="opacity:0.986" fill="#60dafb" d="M 1839.5,2405.5 C 1830.83,2405.5 1822.17,2405.5 1813.5,2405.5C 1771.3,2395.42 1755.14,2369.09 1765,2326.5C 1773.05,2309.12 1786.22,2297.29 1804.5,2291C 1815.24,2287.61 1826.24,2285.61 1837.5,2285C 1851.83,2284.5 1866.16,2284.33 1880.5,2284.5C 1880.67,2276.83 1880.5,2269.16 1880,2261.5C 1877.45,2247.95 1869.62,2239.12 1856.5,2235C 1837.51,2229.8 1820.68,2233.63 1806,2246.5C 1801.97,2251.42 1799.8,2257.09 1799.5,2263.5C 1788.17,2263.5 1776.83,2263.5 1765.5,2263.5C 1766.18,2247.31 1772.85,2234.14 1785.5,2224C 1808.61,2207.38 1834.27,2201.71 1862.5,2207C 1891.71,2212.21 1908.88,2229.38 1914,2258.5C 1914.33,2293.83 1914.67,2329.17 1915,2364.5C 1915.34,2370.54 1916,2376.54 1917,2382.5C 1918.61,2389.17 1920.11,2395.83 1921.5,2402.5C 1909.5,2402.5 1897.5,2402.5 1885.5,2402.5C 1883.85,2396.21 1882.35,2389.88 1881,2383.5C 1869.43,2395.2 1855.6,2402.53 1839.5,2405.5 Z M 1855.5,2308.5 C 1863.83,2308.5 1872.17,2308.5 1880.5,2308.5C 1880.67,2322.17 1880.5,2335.84 1880,2349.5C 1863.68,2372.61 1841.85,2380.44 1814.5,2373C 1797.49,2363.81 1791.99,2349.98 1798,2331.5C 1805.41,2319.53 1816.24,2312.7 1830.5,2311C 1838.98,2310.09 1847.31,2309.26 1855.5,2308.5 Z"/></g>
<g><path style="opacity:0.98" fill="#61dafb" d="M 2443.5,2405.5 C 2433.17,2405.5 2422.83,2405.5 2412.5,2405.5C 2373.31,2397.48 2349.48,2373.81 2341,2334.5C 2339.47,2319.2 2339.14,2303.87 2340,2288.5C 2344.06,2251.49 2362.9,2225.32 2396.5,2210C 2423.48,2201.38 2448.81,2204.71 2472.5,2220C 2492.5,2238.31 2502.67,2261.14 2503,2288.5C 2503.5,2297.49 2503.67,2306.49 2503.5,2315.5C 2460.17,2315.5 2416.83,2315.5 2373.5,2315.5C 2373.06,2342.49 2384.73,2361.99 2408.5,2374C 2427.81,2380.85 2446.14,2378.85 2463.5,2368C 2469.32,2363.02 2474.98,2357.85 2480.5,2352.5C 2487.14,2357.31 2493.64,2362.31 2500,2367.5C 2500.67,2368.5 2500.67,2369.5 2500,2370.5C 2486.1,2390.2 2467.27,2401.86 2443.5,2405.5 Z M 2416.5,2233.5 C 2441.3,2231.48 2457.8,2242.14 2466,2265.5C 2468.05,2272.7 2469.22,2280.03 2469.5,2287.5C 2437.83,2287.5 2406.17,2287.5 2374.5,2287.5C 2375.87,2266.92 2384.87,2250.75 2401.5,2239C 2406.43,2236.64 2411.43,2234.8 2416.5,2233.5 Z"/></g>
<g><path style="opacity:0.984" fill="#60dafb" d="M 2154.5,2208.5 C 2166.08,2208.18 2177.58,2208.51 2189,2209.5C 2205.2,2257.77 2221.2,2306.1 2237,2354.5C 2252.98,2306.27 2268.81,2257.93 2284.5,2209.5C 2296.17,2208.17 2307.83,2208.17 2319.5,2209.5C 2296.57,2273.13 2273.73,2336.8 2251,2400.5C 2242.1,2402.46 2232.93,2403.12 2223.5,2402.5C 2200.5,2337.83 2177.5,2273.17 2154.5,2208.5 Z"/></g>
<g><path style="opacity:1" fill="#61dafa" d="M 2087.5,2208.5 C 2098.83,2208.5 2110.17,2208.5 2121.5,2208.5C 2121.5,2273.17 2121.5,2337.83 2121.5,2402.5C 2110.17,2402.5 2098.83,2402.5 2087.5,2402.5C 2087.5,2337.83 2087.5,2273.17 2087.5,2208.5 Z"/></g>
</svg>
